<?xml version="1.0" standalone="no"?>
<!DOCTYPE svg PUBLIC "-//W3C//DTD SVG 20010904//EN"
 "http://www.w3.org/TR/2001/REC-SVG-20010904/DTD/svg10.dtd">
<svg version="1.0" xmlns="http://www.w3.org/2000/svg"
 width="100" height="100" viewBox="0 0 342.000000 148.000000"
 preserveAspectRatio="xMidYMid meet">

<g transform="translate(0.000000,148.000000) scale(0.100000,-0.100000)"
fill="#000000" stroke="none">
<path d="M328 884 l-277 -554 30 0 c28 0 34 9 211 365 101 201 185 365 188
365 3 0 87 -164 188 -365 l182 -365 156 0 c86 0 154 3 152 8 -11 25 -550 1097
-551 1098 -1 1 -127 -248 -279 -552z"/>
<path d="M1245 1338 c-3 -7 -4 -215 -3 -463 l3 -450 49 -3 c32 -2 52 1 57 10
5 7 9 91 9 186 l0 172 160 0 c178 0 241 14 310 68 75 60 110 198 76 298 -37
108 -106 164 -226 183 -96 16 -429 14 -435 -1z m462 -117 c69 -32 101 -106 84
-197 -11 -58 -58 -107 -118 -123 -21 -6 -100 -11 -175 -11 l-138 0 0 175 0
175 153 0 c127 0 159 -3 194 -19z"/>
<path d="M2002 1338 c-17 -17 -17 -889 0 -906 17 -17 579 -17 596 0 7 7 12 26
12 43 0 17 -5 36 -12 43 -9 9 -78 12 -250 12 l-238 0 0 155 0 155 228 2 227 3
0 45 0 45 -227 3 -228 2 0 150 0 150 226 0 c136 0 233 4 245 10 22 12 27 68 7
88 -17 17 -569 17 -586 0z"/>
<path d="M2702 1342 c-9 -6 -12 -106 -10 -463 l3 -454 55 0 55 0 3 182 2 181
183 4 c174 3 184 5 233 30 64 34 118 95 134 153 18 63 9 180 -18 232 -27 53
-80 96 -145 118 -42 14 -95 19 -267 22 -118 2 -221 0 -228 -5z m474 -128 c56
-41 69 -70 69 -147 0 -58 -4 -78 -22 -103 -41 -58 -80 -68 -255 -72 l-158 -4
0 177 0 176 169 -3 c153 -3 172 -5 197 -24z"/>
<path d="M328 630 l-147 -300 152 0 152 0 62 123 61 122 59 -122 c49 -103 62
-123 81 -123 12 0 22 2 22 4 0 6 -289 596 -292 596 -2 -1 -69 -136 -150 -300z"/>
<path d="M657 193 c-13 -23 -48 -145 -44 -150 4 -3 9 6 13 21 5 22 12 26 40
26 28 0 35 -5 40 -25 3 -14 11 -25 16 -25 6 0 8 6 6 13 -3 6 -16 42 -29 80
-22 63 -32 77 -42 60z m33 -80 c0 -7 -12 -13 -26 -13 -20 0 -25 4 -20 16 3 9
9 28 13 42 l6 27 13 -30 c7 -16 13 -36 14 -42z"/>
<path d="M770 180 c-42 -42 -15 -140 39 -140 27 0 51 10 51 21 0 6 -10 5 -21
-2 -49 -26 -96 39 -68 93 16 31 30 39 57 33 15 -4 21 -2 17 5 -10 17 -54 11
-75 -10z"/>
<path d="M901 174 c-33 -43 -22 -116 19 -129 26 -8 70 2 70 16 0 6 -7 6 -21
-1 -34 -19 -69 11 -69 59 0 49 27 76 67 67 21 -5 24 -4 13 4 -26 17 -58 11
-79 -16z"/>
<path d="M1034 179 c-42 -47 -12 -139 46 -139 38 0 63 31 63 80 0 72 -65 107
-109 59z m76 -9 c11 -11 20 -33 20 -50 0 -29 -29 -70 -50 -70 -20 0 -50 41
-50 68 0 32 25 72 46 72 8 0 23 -9 34 -20z"/>
<path d="M1182 135 c3 -36 11 -72 18 -80 16 -19 64 -19 80 0 17 20 27 145 11
145 -7 0 -11 -23 -11 -65 0 -53 -3 -66 -19 -75 -25 -13 -27 -13 -45 6 -11 10
-16 34 -16 75 0 37 -4 59 -11 59 -8 0 -10 -20 -7 -65z"/>
<path d="M1340 121 c0 -97 19 -111 22 -16 0 36 1 70 2 77 1 6 -5 13 -11 16
-10 3 -13 -17 -13 -77z"/>
<path d="M1440 133 l0 -68 -31 53 c-17 29 -33 51 -36 48 -6 -6 60 -126 70
-126 4 0 7 36 7 80 0 44 -2 80 -5 80 -3 0 -5 -30 -5 -67z"/>
<path d="M1490 190 c0 -5 11 -10 25 -10 23 0 24 -3 28 -72 l3 -73 2 73 c2 70
3 72 27 72 14 0 25 5 25 10 0 6 -25 10 -55 10 -30 0 -55 -4 -55 -10z"/>
<path d="M1630 120 c0 -47 4 -80 10 -80 6 0 10 33 10 80 0 47 -4 80 -10 80 -6
0 -10 -33 -10 -80z"/>
<path d="M1702 118 l2 -83 5 70 6 70 38 -67 c21 -38 42 -68 47 -68 6 0 10 36
10 80 0 53 -4 80 -11 80 -8 0 -10 -20 -7 -65 3 -36 4 -65 3 -65 -2 0 -20 29
-41 65 -21 36 -42 65 -46 65 -4 0 -7 -37 -6 -82z"/>
<path d="M1872 177 c-46 -49 -17 -137 46 -137 36 0 52 16 52 52 0 24 -4 28
-27 27 -17 -1 -21 -3 -10 -6 21 -6 23 -51 2 -59 -8 -4 -26 1 -40 10 -19 13
-25 25 -25 55 0 57 46 90 79 59 11 -11 13 -10 9 2 -8 26 -61 24 -86 -3z"/>
<path d="M2072 188 c-23 -23 -13 -52 25 -73 46 -25 52 -41 19 -56 -20 -9 -29
-9 -41 1 -8 7 -19 10 -22 6 -11 -10 18 -26 48 -26 31 0 49 17 49 47 0 16 -11
28 -40 43 -22 11 -40 24 -40 29 0 18 29 32 57 26 21 -5 24 -4 13 4 -20 14 -53
14 -68 -1z"/>
<path d="M2170 195 c0 -3 11 -28 25 -56 14 -27 23 -54 20 -59 -3 -6 -1 -18 4
-27 9 -15 10 -12 11 15 0 18 11 55 25 82 14 28 22 50 17 50 -4 0 -18 -19 -29
-42 l-21 -43 -18 43 c-9 23 -21 42 -26 42 -4 0 -8 -2 -8 -5z"/>
<path d="M2310 185 c-19 -23 -7 -49 33 -68 39 -18 46 -37 22 -57 -12 -10 -21
-10 -41 -1 -33 15 -39 14 -24 -4 16 -20 64 -19 84 1 9 8 16 18 16 20 0 17 -24
43 -49 54 -16 6 -32 18 -35 26 -7 18 29 37 57 29 17 -5 19 -4 7 4 -21 15 -56
13 -70 -4z"/>
<path d="M2415 190 c3 -5 15 -10 26 -10 17 0 19 -7 19 -70 0 -40 4 -70 10 -70
6 0 10 30 10 70 0 63 2 70 19 70 11 0 23 5 26 10 4 6 -17 10 -55 10 -38 0 -59
-4 -55 -10z"/>
<path d="M2560 120 l0 -80 48 2 c43 1 44 2 10 5 -36 4 -38 6 -38 38 0 31 3 34
33 38 l32 4 -32 1 c-29 2 -33 5 -33 31 0 27 4 30 38 34 34 3 33 4 -10 5 l-48
2 0 -80z"/>
<path d="M2692 118 l2 -83 5 70 6 70 19 -50 c27 -71 32 -72 52 -18 26 72 32
72 27 -1 -4 -46 -2 -66 6 -66 7 0 11 27 11 81 0 95 -14 101 -42 19 -10 -29
-20 -55 -22 -57 -2 -2 -13 24 -25 57 -12 33 -26 60 -32 60 -5 0 -8 -36 -7 -82z"/>
<path d="M150 120 c0 -6 72 -10 195 -10 123 0 195 4 195 10 0 6 -72 10 -195
10 -123 0 -195 -4 -195 -10z"/>
<path d="M2890 120 c0 -6 70 -10 190 -10 120 0 190 4 190 10 0 6 -70 10 -190
10 -120 0 -190 -4 -190 -10z"/>
</g>
</svg>
